<?xml version="1.0" standalone="no"?>
<!DOCTYPE svg PUBLIC "-//W3C//DTD SVG 1.1//EN" "http://www.w3.org/Graphics/SVG/1.1/DTD/svg11.dtd" >
<svg xmlns="http://www.w3.org/2000/svg">
<metadata></metadata>
<defs>
<font id="pushkinregular" horiz-adv-x="1490" >
<font-face units-per-em="2048" ascent="516" descent="-1532" />
<missing-glyph horiz-adv-x="614" />
<glyph horiz-adv-x="0" />
<glyph horiz-adv-x="682" />
<glyph unicode=" "  horiz-adv-x="614" />
<glyph unicode="&#x09;" horiz-adv-x="614" />
<glyph unicode="&#xa0;" horiz-adv-x="614" />
<glyph unicode="!" horiz-adv-x="1585" d="M217 0q3 -31 64 -31q32 0 52.5 24.5t18.5 57.5q-6 64 -35 64q-24 0 -63 -45q-40 -43 -37 -70zM567 373q3 -39 41 -39q21 0 203 203q165 186 330 368q43 46 377 377q209 206 206 223q-3 72 -49 72q-52 0 -577 -571q-534 -580 -531 -633z" />
<glyph unicode="&#x22;" horiz-adv-x="663" d="M219 1067q0 -39 39 -39q31 0 51 23q20 67 23 120q1 3 3.5 17.5t7 38t9.5 49.5q13 67 13 92q0 65 -46 68q-22 5 -34.5 -13t-22.5 -82q-12 -90 -18 -133q-7 -39 -13.5 -75t-9 -50.5t-2.5 -15.5zM434 1079q0 -39 39 -39q31 0 51 23q20 67 23 121q0 2 3 16.5t7.5 38t9.5 49.5 q13 67 13 92q0 65 -45 68q-22 5 -35 -13t-23 -81q-12 -90 -18 -133q-7 -38 -13.5 -75t-9 -51.5t-2.5 -15.5z" />
<glyph unicode="#" horiz-adv-x="6389" d="M33 158q3 -43 51 -66q39 -20 76 -20q326 0 719 204q402 206 450 238q-45 -123 -57 -149q-101 -93 -139 -127q-72 -66 -72 -72q0 -13 20 -31.5t39 -19.5q37 -3 180 143q243 246 316 313q260 225 362 308q29 26 228 178q92 73 106 123q8 23 -8 45t-41 22q-21 0 -141 -102 q-50 -42 -93 -77.5t-68 -57t-26 -21.5q-171 -130 -336 -223q-148 -85 -153 -90q0 245 -68 344q-12 12 -32.5 36.5t-32.5 37.5q137 128 137 258q0 88 -102 135q-81 37 -185 37q-95 0 -198 -41q-100 -40 -109 -86q-3 -9 29 -15q23 -3 119 21q113 29 157 29q199 -3 199 -99 q0 -86 -109 -166q-14 1 -155 33q-98 26 -187 29q-159 3 -301 -80q-140 -82 -137 -195q3 -64 61 -98q51 -31 123 -31q150 0 344 90q58 28 218 121q58 -39 77 -73q24 -39 41 -121q22 -108 11 -203q-298 -182 -510 -283q-206 -94 -344 -143q-152 -57 -201 -57q-44 0 -53 47 q-3 22 26 45q30 24 33 41q3 20 -31 35q-23 10 -41 10q-69 0 -135 -60q-60 -57 -57 -116zM567 965q-3 55 109 112q115 59 227 62q119 6 223 -49q-76 -61 -227 -117q-155 -58 -254 -58q-75 0 -78 50zM1386 473q9 23 18.5 44t18 39.5t11.5 25.5q87 46 100 55q-55 -74 -148 -164 zM1552 190q0 -40 28.5 -69t61.5 -27q96 10 173 53q72 -60 98 -57q132 6 336 98q43 -37 114 -28q74 9 297 84q-3 -86 54 -86q37 0 92 55q4 -12 35 -31q39 -26 79 -26q180 -3 271 49q69 -78 188 -72q149 25 258 55q24 -100 103 -100q61 0 188 59q140 -42 234 -36q72 3 155 53 q3 -36 58 -45q39 -6 77 41q23 9 140 24q11 3 30 -26q20 -30 39 -27q122 13 271 49q35 -12 73 -4q93 18 209 146q128 146 137 309q6 109 -24 217q197 37 584 170q123 42 364 137q192 79 195 92q3 45 -21 51q-26 6 -205 -71q-239 -106 -325 -135q-463 -135 -627 -174 q-107 128 -264 217q-240 135 -541 135q-256 0 -442 -64q-156 -55 -240 -133q-69 -63 -69 -112q0 -111 335 -191q253 -61 398 -61q256 0 780 125q31 -73 31 -132q0 -221 -172 -374q-19 -3 -47.5 -9t-38.5 -8q-46 -17 -119 -65q-168 -29 -178 -27q-12 1 -31.5 26t-32.5 25 q-21 0 -82 -18q-21 -7 -46 -15.5t-37 -12.5t-17 -5q10 26 4 41q-9 30 -47 33q-32 0 -59 -21q-7 -5 -20 -17t-19 -17q-110 -42 -201 -45q-2 0 -8.5 -1t-17.5 -2t-23 -2q-28 -2 -37.5 2.5t-9.5 22.5t35 59q36 42 36 64q0 14 -16 33q-9 12 -27 12q-22 0 -94 -66q-62 39 -129 39 q-27 0 -41 -2q-84 -12 -176 -98q-186 -49 -256 -49q-56 0 -98 31q9 17 45 52.5t39 43.5q4 11 -6 23t-23 14q-23 3 -152 -86q-101 -64 -184 -64q-27 0 -39 31q-3 28 0 41q73 21 140 63q75 49 75 90q0 39 -55 33q-20 -4 -78 -45q-63 -46 -108 -63q-19 32 -41 32q-28 0 -60 -14 q-50 -21 -63 -27q-113 -37 -346 -110q19 31 22 47q0 16 2 39q3 61 -55 70q-32 6 -84 -46q-52 -49 -76 -98q-26 -19 -119 -49q-102 -29 -124 -27q-19 1 -27 6.5t-6 14.5q3 15 43 61q41 47 41 74q0 41 -31 41q-21 0 -63 -31q-10 -9 -31 -26.5t-31 -26.5q-132 -102 -192 -102 q-34 0 -31 18q1 5 24.5 31.5t20.5 36.5q-9 33 -51 36q-27 3 -64 -49q-35 -50 -35 -80zM3713 197q3 58 109 73q60 9 63 -20q3 -30 -43 -64q-46 -30 -86 -30q-17 0 -30 13.5t-13 27.5zM3824 956q0 57 159 131q206 93 504 93q246 0 447 -82q198 -83 268 -205q-394 -81 -776 -90 q-150 -3 -369 51q-233 58 -233 102zM5014 -199q0 -44 30 -41q39 3 244 162q122 93 205 131q176 -45 258 -45q161 0 463 168q144 71 192 96q108 52 105 72q-1 22 -7 32.5t-14 8.5q-157 -70 -297 -139q-307 -145 -436 -154q-109 -9 -213 45q9 5 37.5 21.5t42 25.5t35.5 27 t39 39q11 14 30 72q19 59 19 71q174 183 184 209q5 14 -4.5 23t-32.5 10q-21 3 -104 -68q-18 -15 -69.5 -58t-80.5 -67q-173 -131 -237 -184q-35 -25 -154 -94q-86 -53 -86 -74q0 -33 39 -33q8 0 86 35q81 38 104 41q-155 -146 -239 -207q-34 -24 -50 -35t-41.5 -31 t-36.5 -34t-11 -25z" />
<glyph unicode="$" horiz-adv-x="5009" d="M-561 819q3 -106 98 -180q113 -85 326 -94q133 -3 309 71q180 76 180 134q0 18 -30 18q-28 0 -93 -39q-85 -51 -145 -72q-98 -39 -215 -39q-153 0 -264 66q-93 59 -90 127q3 160 356 295q284 112 690 168q589 69 995 110q73 9 218 28t217 28q254 44 376 112 q163 91 160 246q0 44 -23 77t-55 38q-14 2 -21 -5t-7 -24v-86q-24 -153 -774 -258q-108 -15 -333 -44.5t-341 -45.5q-407 -56 -527 -78q-551 -102 -778 -223q-238 -127 -229 -330zM-74 -512q0 -29 29 -29q18 0 100 70q126 110 150 127q261 198 393 283q265 175 356 229 q44 -47 88 -53q79 -12 215 45q36 -45 78 -45q85 0 164 20q50 -50 86 -53q97 -9 279 57q8 -16 10 -22q13 -20 31 -23q2 -2 106 33q28 -54 62 -57q10 -3 151 28q39 8 86.5 19.5t56.5 13.5q-3 -14 -6 -30l-2 -7q3 -34 33 -37q15 -2 84 9q16 3 46.5 8t45.5 8q43 -43 98 -49 q15 -2 119 20q25 -28 62 -28q46 0 135 65q22 -79 100 -82q119 -6 305 82q44 -90 82 -98q31 -8 72 -2q40 8 63 10q42 -36 78 -86q-131 -253 -192 -373q-83 -162 -148 -332q-65 -177 -65 -223q0 -15 14.5 -32t30.5 -17q25 -3 102 189q104 261 135 325q142 276 238 434 q77 -18 221 -18q414 0 692 207q136 102 214.5 234.5t76.5 254.5q-3 122 -106 185q-88 52 -193 43q-228 -15 -516 -291q-151 -145 -283 -301q-28 -34 -83 -100.5t-82 -100.5q-36 62 -33 164l4 145q5 9 35 59t40.5 70.5t25 59.5t18.5 71q5 39 -23.5 72.5t-68.5 32.5 q-47 -3 -105 -64q-64 -70 -67 -149q-3 -50 6 -90q14 -60 14 -72q-103 -83 -172 -117q-183 -89 -244 -86q-44 3 -41 21q3 11 49 51q51 41 56 63q2 13 -9 27t-24 14q-18 0 -57 -26q-58 -31 -70 -35q-24 68 -47 65q-15 -3 -51 -32q-47 -41 -70 -54q-114 -63 -168 -63 q1 0 -4.5 2t-19 5.5t-31.5 8.5q46 70 49 84q3 32 -37 41q-26 3 -57 -28q-44 -44 -56 -50q-60 -31 -81 -28q34 67 45 84q6 31 -47 37q-27 2 -111 -72q-79 -36 -182 -33q11 9 31 25.5t36.5 30.5t32.5 26q62 53 68 80q9 42 -21 45q-26 3 -129 -86q-33 -31 -123 -59l4 43 q3 28 -4 45q-6 22 -28 22q-17 0 -58 -35q-58 -49 -88 -67q-136 -86 -258 -86q-16 0 -53 16q6 12 43 55q28 31 31 58q6 28 -37 37q-12 3 -90 -66q-77 -68 -117 -65q-55 3 -76 18q8 12 51 55q31 28 31 54q0 35 -31 38q-21 3 -63 -36q-11 -10 -33 -31t-33 -31 q-104 -82 -184 -67q-41 9 -35 36q2 15 33 58q29 40 29 49q0 41 -37 41q-9 0 -92 -92q-93 -68 -193 -135q-166 -105 -223 -136q39 45 88 84q8 7 102 76q33 24 111 82q55 46 55 74q0 37 -31 37q-27 0 -112 -64q-74 -55 -113 -94q-6 19 4 72q2 15 23 49q14 23 18 41 q3 35 -31 35q-37 0 -90 -62q-37 -50 -71 -92q-107 -35 -115 -35q-36 0 -39 49q-3 24 43 70q3 3 13.5 15t14.5 16t14 14.5t16 16t16.5 16t20 19t22 19.5t27 23t30.5 25q52 43 55 63q2 8 -13 20.5t-28 12.5q-38 3 -192 -139q-42 -39 -131 -92q-90 -53 -109 -56q-9 -1 -13.5 5 t-4.5 18q0 21 205 190q102 83 135 109q70 58 76 86q2 12 -13 26t-32 15q-23 3 -244 -182q-270 -225 -279 -299q-5 -31 14 -57t54 -27q35 -3 100 32q84 47 99 52q8 -63 16 -82q20 -42 80 -45q53 -3 147 14q-3 -25 13 -80q-214 -214 -379 -360q-234 -205 -234 -238zM3498 115 q60 53 90 71l8 -59q-21 -66 -65 -57q-24 3 -33 45zM3643 457q6 45 31 80.5t51 31.5q20 -3 17 -49q0 -32 -29 -82q-9 -17 -53 -73q-29 16 -17 92zM3824 -43q25 42 143 182q135 156 244 262q144 137 260 217q148 103 217 103q125 0 174 -49q43 -46 43 -154q0 -73 -53 -168 q-63 -114 -162 -194q-263 -222 -727 -222q-11 0 -139 23z" />
<glyph unicode="'" horiz-adv-x="522" d="M219 1067q0 -39 39 -39q31 0 51 23q20 67 23 120q1 3 3.5 17.5t7 38t9.5 49.5q13 67 13 92q0 65 -46 68q-22 5 -34.5 -13t-22.5 -82q-12 -90 -18 -133q-7 -39 -13.5 -75t-9 -50.5t-2.5 -15.5z" />
<glyph unicode="(" horiz-adv-x="626" d="M41 221q-3 -75 12 -145q18 -76 53 -76q18 0 33 53q4 20 4 31q0 8 -10 59t-10 78q0 80 84 256q79 159 178 285q241 302 401 512q15 20 58 63q24 24 24 39q0 66 -28 66q-36 0 -207 -213q-34 -43 -305 -398q-128 -167 -189 -280q-89 -168 -98 -330z" />
<glyph unicode=")" horiz-adv-x="884" d="M74 -78q0 -8 11 -19t17 -9q240 111 402 413q128 239 196 553q62 287 62 541q0 72 -47 155q-44 78 -72 78q-37 0 -37 -49q0 -13 35 -78t35 -90q0 -111 -21 -270q-74 -570 -278 -885q-68 -106 -203 -225q-100 -87 -100 -115z" />
<glyph unicode="+" horiz-adv-x="1277" d="M184 524q0 -2 4 -9.5t12.5 -9.5t27 -4.5t46.5 -2.5q82 0 154 2q29 1 66.5 2t57.5 1.5t32 0.5q0 -33 2 -72q12 -354 35 -377q27 -27 55 0q13 13 10 129q-6 199 -6 213q0 25 2 52v53l295 -13q147 -6 156 3q26 29 26 53q0 16 -10 26q-36 36 -463 27q15 325 6 334 q-29 26 -53 26q-14 0 -27 -10q-28 -36 -28 -352q-371 -15 -387 -31q-13 -16 -13 -30v-11z" />
<glyph unicode="," horiz-adv-x="688" d="M0 -266q3 -23 57 -23q49 0 142 43q92 42 153 86q244 173 244 283q0 76 -84 76q-9 0 -17 -4t-15.5 -13t-13.5 -18.5t-13.5 -25t-12.5 -26.5t-13 -29.5t-13 -29.5q-41 -73 -139.5 -154t-217.5 -128q-3 -1 -11.5 -3.5t-12 -3.5t-10.5 -3.5t-10 -5t-7 -5.5t-5 -7t-1 -9z" />
<glyph unicode="-" d="M215 449q0 -15 3 -21t25 -12t68 -6q11 0 31 0.5t57 1.5t68 2q120 6 178 6q145 -4 330 -14q258 -11 270 -11q56 0 62 6q30 35 30 60q0 14 -10 24q-22 22 -237 31q-194 6 -400 0q-439 -15 -465 -41q-10 -10 -10 -26z" />
<glyph unicode="." horiz-adv-x="583" d="M285 74q0 -35 25 -56.5t61 -19.5q29 1 49 26.5t20 57.5q0 74 -69 80q-32 1 -59 -27t-27 -61z" />
<glyph unicode="0" horiz-adv-x="1280" d="M6 215q0 -38 6 -68q9 -54 82 -112q75 -60 152 -60q211 0 456 187q249 187 418 469q170 286 170 399q0 81 -80 176q-79 97 -151 97q-124 0 -301 -80q-204 -95 -369 -260q-179 -183 -280 -385q-103 -204 -103 -363zM113 250q0 208 274 538q135 163 322 289q186 125 307 125 q62 0 109 -43.5t59 -107.5q18 -104 -205 -418q-172 -241 -352 -387q-207 -168 -373 -168q-49 0 -89 36.5t-48 86.5q-4 32 -4 49z" />
<glyph unicode="1" horiz-adv-x="864" d="M35 737q0 -37 26 -37q39 0 195 111q198 142 242 164l358 194q-144 -233 -358 -526q-30 -43 -291 -395q-156 -212 -156 -223q0 -25 12.5 -46.5t30.5 -21.5q53 0 510 647q63 89 121.5 173t90 129t40.5 57q127 195 127 266q0 74 -82 74q-36 0 -178 -74q-135 -69 -268 -154 q-420 -266 -420 -338z" />
<glyph unicode="2" horiz-adv-x="983" d="M8 68q0 -86 74 -86q10 0 45 41q40 45 61 63q30 24 66 35q12 5 57 16q89 -53 135 -96q16 -16 41 -57q20 -33 48 -33q25 0 46 25t21 51q0 54 -184 198q243 279 323 393q35 47 102 132t91 116q98 134 98 205q0 64 -28 115q-41 65 -123 65q-91 0 -273 -135 q-209 -156 -209 -229q0 -51 47 -51q12 0 68 59q84 87 94 96q184 158 250 158q68 0 68 -49q0 -5 -2 -23t-2 -22q0 -19 -93 -156q-79 -118 -180 -248q-184 -236 -338 -368q-20 -12 -71 -25q-54 -15 -86 -37q-146 -103 -146 -153z" />
<glyph unicode="3" horiz-adv-x="1101" d="M4 147q0 -71 115 -133q92 -51 137 -51q207 0 381 133q101 78 164 213q55 113 55 185q0 90 -88 157q36 30 127 97q109 84 133 108q6 5 131 113q62 68 62 174q0 29 -39 57.5t-72 28.5q-140 0 -334 -129q-95 -62 -172 -139q-65 -68 -65 -89q0 -45 34 -45q11 0 21 7 q151 118 215 174q136 100 219 116q64 6 64 -49q0 -59 -154 -174q-41 -27 -123 -83.5t-123 -84.5q-39 -27 -188 -106q-101 -52 -101 -80q0 -98 50 -98q18 0 88 43q70 46 102 43q86 -9 86 -62q0 -56 -43 -143q-46 -96 -117 -153.5t-141 -80.5q-68 -22 -172 -22q-58 0 -115 63 q-60 66 -73 66q-31 0 -50 -25q-14 -14 -14 -31z" />
<glyph unicode="4" horiz-adv-x="815" d="M8 8q0 -14 15 -29.5t28 -15.5q43 0 154 135q114 150 231 297q215 254 326 375l129 141q57 60 57 88q0 56 -55 56q-6 0 -109 -41q-98 -39 -178 -39q-117 0 -117 63q0 9 37 76t37 98q0 7 -4 12t-11.5 8.5t-14.5 5.5t-18.5 4.5t-16.5 4.5q-45 14 -97 -84q-47 -89 -47 -143 q0 -48 58 -94q61 -45 123 -54q85 -12 147 0q-173 -223 -328 -407q-43 -52 -120 -149t-105 -132q-121 -154 -121 -176z" />
<glyph unicode="5" horiz-adv-x="1038" d="M16 51q0 -20 23.5 -38.5t44.5 -18.5q127 0 295 131q170 132 170 240q0 79 -90 135q-9 5 -35 19.5t-39 22.5t-30.5 20t-25 23.5t-7.5 22.5q0 15 67 103q64 90 135 161q61 61 140 117q89 63 120 86q133 0 230 -20q30 -7 106 -41q67 -33 92 -33q41 0 50 43q0 94 -287 156 q-53 9 -111 6q-102 -6 -125 -6q-28 -20 -83.5 -60t-82.5 -59q-74 -54 -139 -119q-252 -261 -252 -367q0 -41 125 -114q127 -71 127 -96q0 -64 -59 -117q-38 -34 -129 -88q-20 -13 -135 -56q-95 -35 -95 -53z" />
<glyph unicode="6" horiz-adv-x="1017" d="M-8 246q0 -117 90.5 -194t234.5 -77q135 0 283 109q172 126 172 297q0 68 -65 115q-56 39 -125 39q-109 0 -230 -68q-86 -50 -217 -160q126 249 324 438q133 127 274 224q150 106 217 106q14 0 46.5 -15t39.5 -16q56 -6 56 62q0 59 -56 74q-21 6 -86 6q-79 0 -262 -121 q-161 -108 -323 -264q-138 -135 -256 -312q-117 -175 -117 -243zM166 172q49 81 90 111q208 147 289 147q41 0 72.5 -27.5t31.5 -64.5q0 -116 -125 -195q-106 -69 -219 -69q-23 0 -69 22q-61 28 -70 76z" />
<glyph unicode="7" horiz-adv-x="802" d="M6 31q0 -14 8 -17q25 -6 41 -16q32 -19 357 494q14 -5 102 -46q52 -24 68 -24q51 0 51 70q0 22 -53 49q-77 41 -97 61q96 171 133 225q7 13 140 185q78 104 78 141q0 39 -74 51q-47 6 -203 6q-360 0 -360 -57q0 -66 36 -66h443q-51 -71 -158 -215q-60 -94 -137 -221 q-10 0 -117 39q-119 41 -178 47q-80 9 -80 -43q0 -27 146 -86q109 -44 167 -61q-96 -147 -147 -221q-166 -248 -166 -295z" />
<glyph unicode="8" horiz-adv-x="937" d="M0 125q0 -44 36.5 -84.5t78.5 -40.5q125 0 274 88q173 105 191 244q3 37 -19 98q-20 56 -20 78q207 118 350 246q172 150 172 254q0 108 -68 194q-58 70 -94 70q-74 0 -74 -45q0 -19 58 -86q59 -68 59 -133q0 -98 -168 -232q-121 -94 -235 -153q-25 94 -17 204 q0 17 15 64q16 50 16 63q0 62 -55 62q-80 0 -92 -209q-6 -114 18 -258q-213 -120 -262 -160q-164 -126 -164 -264zM115 162q0 49 106 139q104 87 223 158q24 -65 21 -127q-6 -93 -135 -164q-101 -55 -166 -55q-49 0 -49 49z" />
<glyph unicode="9" horiz-adv-x="888" d="M-51 -6q15 -96 174 -96q122 0 278 135q146 124 283 332q114 170 203 399q83 219 92 328q6 86 -59 163q-66 78 -166 78q-95 0 -211 -88q-125 -94 -131 -196q-6 -76 45 -142q52 -73 131 -73q97 0 215 47q-84 -243 -144 -359q-45 -85 -147 -221q-91 -123 -201 -205 q-116 -88 -196 -88q-20 0 -57 15.5t-44 15.5q-22 0 -43 -12q-25 -11 -22 -33zM522 1049q3 45 82 112q76 64 123 64q44 0 76.5 -41t30.5 -92q-3 -62 -60 -113q-58 -49 -121 -49q-51 0 -90 33q-44 36 -41 86z" />
<glyph unicode=":" horiz-adv-x="694" d="M346 156q0 -35 25 -56.5t61 -19.5q29 1 49.5 27t20.5 57q0 74 -70 80q-32 1 -59 -27t-27 -61zM354 578q0 -35 25 -56.5t61 -19.5q29 1 49.5 27t20.5 57q0 74 -70 80q-32 1 -59 -27t-27 -61z" />
<glyph unicode=";" horiz-adv-x="835" d="M61 -225q3 -23 58 -23q48 0 141 43q95 43 154 86q243 173 243 283q0 76 -84 76q-9 0 -17 -4t-15.5 -13t-13.5 -18.5t-13.5 -25t-12.5 -26.5t-13 -29.5t-13 -29.5q-41 -74 -139 -154.5t-217 -127.5q-3 -1 -11.5 -3.5t-12.5 -3.5t-11 -3.5t-10 -5t-7 -5.5t-5 -7t-1 -9z M571 565q0 -35 25 -56.5t61 -19.5q29 1 49.5 27t20.5 57q0 74 -70 80q-32 1 -59 -27t-27 -61z" />
<glyph unicode="=" d="M211 575q0 -15 3 -21t24.5 -11.5t68.5 -5.5q11 0 31 0.5t57 1.5t68 2q120 6 178 6q105 -3 330 -15q235 -10 270 -10q56 0 62 6q30 34 30 60q0 14 -10 24q-22 22 -238 31q-193 6 -399 0q-439 -15 -465 -41q-10 -10 -10 -27zM215 285q0 -15 3 -21t25 -12t68 -6q11 0 31 0.5 t57 1.5t68 2q120 6 178 6q145 -4 330 -14q258 -11 270 -11q55 0 62 7q30 35 30 59q0 15 -10 25q-21 21 -237 30q-194 6 -400 0q-439 -15 -465 -41q-10 -10 -10 -26z" />
<glyph unicode="?" horiz-adv-x="1452" d="M281 49q0 -4 4 -16q9 -37 49 -37q25 0 43 19t18 44q0 29 -22 44.5t-49 7.5q-43 -18 -43 -62zM395 465q-12 -76 41 -76q39 0 60 37q44 213 292 379q75 41 223.5 123t223.5 123q237 141 252 301q9 94 -111 147q-99 45 -235 45q-183 0 -338 -88q-126 -69 -273 -225 q-6 -21 -6 -31q0 -5 1.5 -8.5t3 -5.5t5 -4t6 -2.5t7.5 -1t7 -0.5h8h7q36 26 106.5 77t106.5 76q161 100 299 103q55 2 164 -15q66 -12 97.5 -28.5t29.5 -38.5q-12 -126 -250 -265l-448 -258q-249 -169 -279 -364z" />
<glyph unicode="@" horiz-adv-x="4571" d="M53 164q0 -70 111 -70q276 0 592 201q261 169 297 199q27 -19 84 -43q39 -17 39 -41q0 -112 -123 -279q-115 -157 -115 -201q0 -32 25 -32q48 0 229 266q131 192 231 297q10 5 277 131q172 81 242 125q154 94 208 141q66 57 66 105q0 24 -33 24q-17 0 -102 -67 q-116 -92 -160 -117q-133 -79 -258 -131q-109 -46 -135 -49q206 317 393 528q114 129 231 258q121 145 121 184q0 33 -37 33q-28 0 -294 -266q-143 -140 -226 -211q-119 -96 -188 -150q-56 61 -74 76q-51 39 -131 39q-105 0 -221 -90q-97 -77 -164 -176q-66 -97 -66 -131 q0 -45 35 -92q1 -1 8 -9.5t24.5 -28t35.5 -40.5q-138 -120 -268 -197q-114 -69 -250 -121q-116 -45 -162 -45l-56 -1q2 -1 7 -1q-25 3 -25 19q0 24 78 108t78 101q0 41 -45 41q-53 0 -166 -125q-113 -122 -113 -162zM995 721q0 47 115 168q121 127 205 127q102 0 102 -90 q-39 -52 -160 -164q-111 -102 -167 -139q-28 0 -61.5 32t-33.5 66zM1139 565q24 24 63 53q41 33 62 54q28 0 36 -8q9 -6 0 -54q-33 -50 -88 -86q-40 16 -73 41zM1417 762q77 120 185 176q-87 -164 -148 -231q-37 21 -37 55zM1716 94q0 -27 35 -45q29 -16 55 -16q32 0 61 37 t29 73q0 20 -20.5 39t-40.5 19q-41 0 -80 -39t-39 -68zM1806 -782q0 -28 26.5 -71.5t63.5 -68.5q124 -86 320 -86q295 0 487 107q122 67 246 182q112 106 160 191q91 168 149 327q56 148 56 181q0 50 -45.5 81t-110.5 33q-29 3 -109 -10q-76 -9 -100 -6q-53 6 -53 45 q0 51 67 127q71 82 326 315q25 22 76 64t76 63q98 85 98 111q0 37 -41 37q-84 0 -307 -168q-228 -152 -340 -221q149 210 229 311q11 13 88 121q46 69 76 92q170 9 234 12q144 4 270 -4q172 -8 231 -8h518q37 0 37 37q0 50 -182 59q-18 2 -334 2h-704q6 13 86 119 q57 75 57 123q0 14 -19.5 29.5t-37.5 15.5q-38 0 -156 -127q-122 -113 -184 -160q-70 -12 -111 -12q-57 -4 -117 4q-76 8 -112 8q-63 0 -140 -39q-77 -38 -77 -71q0 -54 59 -54q24 0 80 15q55 14 78 14q71 3 176 -12q-45 -46 -84 -86t-57 -58.5t-19 -19.5q-15 -13 -41.5 -36 t-68 -58.5t-76.5 -65.5q-101 -82 -101 -90q0 -25 25 -25q59 0 307 230q109 101 217 209q83 21 111 12q-100 -131 -180 -231q-197 -272 -324 -412q-26 -27 -158 -170q-80 -86 -80 -109q0 -13 16.5 -24.5t29.5 -11.5q14 0 81 61q40 37 77.5 71t56 51t22.5 21q184 158 291 232 l168 108q-134 -139 -193 -207q-110 -131 -110 -206q0 -57 32.5 -92t86.5 -35q39 0 110 12q73 12 103 12q65 -3 65 -53q0 -20 -47 -141q-53 -138 -96 -220q-152 -291 -394 -409q-218 -107 -450 -107q-105 0 -152 7q-69 12 -122 51q-18 13 -54 63q-38 47 -53 47q-29 0 -29 -28 zM3457 16q0 -69 131 -69q44 0 59 11t15 50q0 42 -30.5 72.5t-72.5 30.5q-32 0 -67 -30.5t-35 -64.5z" />
<glyph unicode="A" horiz-adv-x="1611" d="M25 178q0 -67 81 -110q67 -31 121 -31q116 0 250 55q50 19 262 127q302 155 572 434q26 0 73 -8q49 -8 78 -8q-106 -147 -151 -203q-258 -357 -258 -381q0 -45 69 -45q20 0 123 158q112 175 152 221q20 20 90 115q61 86 110 135q5 1 11 1q30 0 90 -13q87 -19 100 -19h5 q55 0 55 64q0 30 -56 45q-82 16 -123 26q56 65 224 297q186 253 186 283q0 76 -49 76q-64 0 -348 -260q-245 -222 -414 -379q-11 0 -66.5 2t-74.5 2q-127 0 -127 -45q0 -21 67 -39q17 -4 53.5 -12.5t53.5 -12.5q-202 -193 -486 -338q-326 -168 -444 -168q-109 0 -109 89 q0 28 21 49q27 30 33 51q1 7 -10 13.5t-19 4.5q-59 -12 -102 -65.5t-43 -110.5zM1397 758q126 120 282 258q163 139 217 180q-132 -176 -202 -266l-142 -189z" />
<glyph unicode="B" horiz-adv-x="1329" d="M-61 -145q0 -20 41 -41q2 -1 5 -1q20 0 72 46q22 22 64 66t63 65q61 60 140 138t132.5 130.5t90.5 89.5q282 282 594 508q163 123 186 123q22 0 26.5 -7t4.5 -34q0 -32 -42 -95t-97 -114q-61 -53 -123 -108q-60 -54 -60 -91q0 -14 27 -43.5t27 -40.5q0 -94 -39 -159 q-7 -12 -86 -117q-23 -33 -123 -74q-38 -17 -54.5 -33t-11.5 -30q9 -25 31 -25q50 0 199 70q232 105 239 108l209 80q127 53 127 82q0 13 -16 29q-8 0 -279 -92q-143 -57 -196 -82q37 53 73 143q35 90 35 135q0 65 -33 109q89 47 189 174q100 126 100 199q0 118 -61 118 q-98 0 -242 -106l-307 -246q-335 -290 -475 -424q39 79 198 301q181 247 322 414q53 64 266 280q131 131 131 175q0 20 -12 36.5t-29 16.5q-73 0 -475 -381q-586 -556 -586 -617q0 -11 6 -14q10 -1 20 -6.5t13 -5.5q26 0 80 63q78 90 100 109q15 15 47 44.5t48 45.5 q58 55 125 94q-60 -86 -162 -242q-118 -180 -180 -258q-342 -447 -342 -505z" />
<glyph unicode="C" horiz-adv-x="1159" d="M10 145q0 -137 140 -137q215 0 724 137q207 55 426 127q230 76 230 103q0 33 -51 33q-3 0 -244 -76q-285 -86 -430 -121q-474 -109 -615 -109q-17 0 -33 14.5t-16 28.5q0 125 269 400q221 224 469 418q163 127 338 206q120 54 157 54q16 0 37 -18.5t21 -39.5 q0 -73 -99 -168q-90 -84 -131 -84q-22 0 -37 45q-8 24 -16.5 34t-18.5 7q-157 -56 -157 -155q0 -43 39 -66q36 -22 80 -22q118 0 292 162q179 164 179 296q0 117 -140 117q-75 0 -227 -63q-161 -65 -293 -162q-356 -268 -569 -488q-165 -173 -248 -305q-76 -119 -76 -168z " />
<glyph unicode="D" horiz-adv-x="2084" d="M-72 57q0 -176 289 -176q142 0 377 80q184 62 233 96q219 -77 371 -77q167 0 385 98q247 113 416 282q146 146 254 351q98 189 98 309v98q-5 42 -31 111q11 11 115 102q69 61 84 94q8 16 8 39q0 47 -33 47q-24 0 -114 -86q-74 -59 -131 -108q-253 194 -598 194 q-129 0 -318 -53q-203 -56 -385 -162q-514 -302 -532 -510q-1 -6 -1 -12q0 -56 54 -104q61 -49 133 -49t234 67q191 78 315 176q238 185 250 365v9q0 53 -35 58h-5q-31 0 -52 -36q-9 -12 -6 -21q6 -21 6 -51q0 -114 -219 -279q-104 -76 -265 -143q-130 -54 -202 -54 q-11 0 -21 1q-51 10 -61 16q-25 16 -25 57q0 86 156 224q146 131 321 219q169 85 350 133q180 47 308 47q191 0 340 -61q118 -50 178 -119q-163 -127 -395 -299q-179 -130 -422 -309q-438 -334 -553 -449q-30 9 -91 27.5t-90 27.5q-96 29 -172 29h-14q-180 -3 -332 -57 q-172 -61 -172 -142zM18 41q0 27 138 68q124 36 227 36h16q75 -3 158 -20q109 -29 137 -35q-14 -14 -196 -67q-205 -60 -281 -60q-199 0 -199 78zM891 145q107 114 547 426q330 224 401 269q201 149 385 307q25 -86 25 -127q0 -134 -90 -303q-86 -159 -234 -307 q-158 -155 -371 -240q-195 -80 -356 -80q-121 0 -307 55z" />
<glyph unicode="E" horiz-adv-x="815" d="M-2 41q-1 -7 -1 -14q-1 -39 27 -71q32 -38 72 -38q125 0 424 123q381 156 381 209q0 26 -29 26q-28 0 -147 -61q-146 -74 -221 -100q-296 -107 -373 -107q-18 0 -18 41q0 84 370 436q23 21 279 273q151 151 332 377q34 42 68.5 85t48 60t16.5 20q63 86 63 142 q0 47 -53 74q-41 20 -96 20q-40 0 -144 -43q-107 -43 -198 -107q-254 -181 -254 -282q0 -69 65 -152q67 -64 103 -86q-145 -153 -275 -276q-211 -211 -293 -303q-138 -156 -147 -246zM631 1118q0 15 57 72q63 66 164 137q168 115 262 115q57 0 57 -19q0 -6 -2 -10 q0 -46 -63 -121q-90 -103 -127 -143q-113 -123 -201 -211q-147 70 -147 180z" />
<glyph unicode="F" horiz-adv-x="1171" d="M-10 53q0 -27 30 -61q30 -35 48 -35q114 0 276 119q100 74 291 254q104 104 135 137q46 -46 86 -61q89 -38 230 -38q27 0 57 1q65 3 65 55q0 16 -100 25q-125 9 -178 30q-33 12 -90 56q368 346 368 387q0 18 -34 18q-30 0 -189 -147q-36 -34 -107.5 -100.5t-107.5 -100.5 q-44 35 -74 47q-85 31 -143 31q-115 0 -115 -158q0 -55 51 -55q12 0 27 53q15 55 62 55q28 0 69 -12q18 -7 51 -25q-23 -22 -66.5 -63.5t-58.5 -56.5q-336 -330 -454 -330q-29 0 -29 28q0 18 35 68t35 59q0 29 -41 29q-43 0 -90 -92q-39 -74 -39 -117zM389 813q0 -68 49 -68 q24 0 45 66q5 19 16.5 56t16.5 55q120 323 658 323q149 0 370 -51t418 -51q388 0 578 102q204 110 204 225q0 10 -27.5 21.5t-52.5 11.5q-37 0 -124 -78q-112 -103 -164 -163q-115 -33 -398 -33q-124 0 -381 57q-254 57 -479 57q-292 0 -497 -129q-232 -148 -232 -401z" />
<glyph unicode="G" horiz-adv-x="782" d="M-1196 -1434q0 -39 30.5 -68.5t71.5 -29.5q80 0 285 184q63 59 367 357q207 204 440 516q52 70 155.5 212.5t155.5 213.5q152 103 197 129q2 1 15.5 7.5t37 17.5t49.5 24q187 86 361 156q63 26 63 53q0 33 -61 33q-33 0 -103 -33q-24 -12 -71 -33.5t-70 -32.5 q-177 -82 -219 -104q9 17 50.5 97t64.5 122q108 185 278 383q46 55 281 293q176 179 176 209q0 59 -45 59q-26 0 -113 -78q-115 83 -213 86h-4q-271 0 -567 -401q-197 -268 -197 -385q0 -26 30.5 -52t59.5 -26q130 0 344 152q-138 -308 -313 -535q-231 -199 -313 -264 q-67 -56 -200 -167.5t-200 -168.5q-210 -182 -366 -338q-175 -175 -305 -336q-152 -190 -152 -252zM-1116 -1434q-2 5 -2 12q0 91 446 535q161 161 400 369q220 192 346 285q-282 -435 -596 -740q-111 -109 -342 -332q-156 -147 -209 -147q-34 0 -43 18zM324 590 q0 16 55 123q63 128 133 211q270 326 455 326q8 0 16 -1q98 -9 143 -65q-41 -41 -105.5 -109t-88.5 -92q-162 -154 -336 -291q-180 -139 -231 -139q-41 0 -41 37z" />
<glyph unicode="H" horiz-adv-x="1341" d="M0 29q0 -33 47 -33q34 0 137 139q125 169 172 223q79 85 115 111q67 48 145 57q28 4 54 4q64 0 110 -24q-73 -192 -73 -258q0 -61 48 -108.5t113 -47.5q114 0 363 156q280 176 280 217q0 18 -28 18q-23 0 -109 -57q-21 -14 -81 -53t-91 -60q-199 -123 -311 -123 q-32 0 -56 27.5t-24 67.5q0 78 107 270q9 18 21.5 37t22 33.5t27.5 38t25.5 33.5t31 37.5t28 33t32 37t29.5 33.5q27 32 168 184q94 101 94 117q0 22 -27 22q-50 0 -311 -282q-103 -111 -223 -283q-30 0 -99 16q-73 17 -75 17q-12 0 -105 -17q-88 -16 -115 -16 q62 142 236 328q42 43 127.5 129.5t128.5 130.5q153 164 153 221q0 39 -34 39q-45 0 -404 -389q-29 -33 -262 -262q-158 -152 -197 -213q-4 -12 -4 -17q0 -17 14.5 -34.5t28.5 -22.5q-25 -50 -77.5 -149.5t-77.5 -149.5q-74 -142 -74 -178z" />
<glyph unicode="I" horiz-adv-x="1214" d="M-10 709q0 -16 13 -28.5t26 -12.5q75 0 401 186q126 71 287 195q33 25 98 77t98 78q68 -115 95 -121q32 -7 70 -7q12 0 26 1q89 6 90 6q-13 -13 -184 -143q-138 -105 -256 -207q-237 -206 -336 -299q-280 -259 -287 -268q-80 -83 -80 -133q0 -60 39 -60q17 0 139 78 q150 99 256 158q118 63 428 168q156 46 236 69q127 38 127 58q0 53 -31 53q-22 0 -153 -35q-159 -42 -226 -67q-266 -90 -467 -185v19q369 329 420 377q200 166 410 331q51 42 143 84q98 48 121 66q53 41 53 106q0 15 -23.5 36.5t-45.5 21.5q-26 0 -154 -76t-195 -76 q-30 0 -45 49q-22 79 -30 90q-30 50 -97 50q-56 0 -227 -148q-226 -192 -317 -252q-38 -25 -271 -131q-151 -68 -151 -108z" />
<glyph unicode="J" horiz-adv-x="1214" d="M-170 -293q0 -59 39 -59q17 0 139 78q141 93 256 157q118 63 428 168q38 13 342 88q236 58 236 76q0 53 -31 53q-24 0 -260 -53q-246 -56 -334 -86q-273 -93 -467 -184v18q83 74 281 299q274 318 360 410q191 203 410 387q51 42 143 84q102 50 121 65q53 41 53 107 q0 15 -23.5 36t-45.5 21q-26 0 -154 -76q-126 -75 -195 -75q-30 0 -45 49q-22 79 -30 90q-30 49 -97 49q-58 0 -227 -147q-226 -192 -317 -252q-38 -25 -271 -131q-151 -68 -151 -109q0 -16 13 -28.5t26 -12.5q75 0 401 186q126 71 287 195q33 25 98 78t98 78 q68 -115 95 -121q33 -7 70 -7q13 0 26 1q88 6 90 6q-303 -254 -440 -406q-298 -333 -557 -630q-278 -257 -287 -269q-80 -83 -80 -133z" />
<glyph unicode="K" horiz-adv-x="1662" d="M-12 63q0 -40 31 -72t65 -32q26 0 334 221l129 99q64 49 98 49q22 0 62 -58q50 -71 81 -106q155 -162 234 -162q91 0 391 80q340 88 340 133q0 31 -37 31q-17 0 -135 -31q-123 -36 -203 -51q-273 -53 -325 -53q-72 0 -176 125q-90 111 -138 210q142 66 351 185 q230 127 466 287q504 340 504 374q-9 39 -41 39q-19 0 -188 -123q-252 -175 -315 -215q-543 -341 -678 -387q200 225 290 312q7 7 30 31t70.5 72t94.5 97q107 107 107 137q0 31 -11 42.5t-41 11.5q-172 -184 -307 -316q-354 -346 -653 -594q-31 -26 -277 -200 q-153 -108 -153 -136z" />
<glyph unicode="L" horiz-adv-x="1452" d="M12 47q0 -61 113 -61q60 0 135 37q7 4 43 24t57 31q193 110 265 135q146 -87 211 -129q253 -137 340 -137q70 0 194 53q123 52 123 76q0 27 -8.5 40t-30 13t-52 -11t-79.5 -34q-89 -45 -168 -45q-50 0 -194 78q-137 71 -261 174q62 48 195 164q86 75 160 129 q73 54 208 153.5t195 143.5q254 168 314 219q264 225 264 315q0 51 -54 51q-34 0 -147 -88q-35 -28 -104.5 -84t-104.5 -84q-110 -88 -246 -215q-34 -33 -100 -98t-100 -98q-110 -66 -164 -90q-8 -4 -26 -11t-54.5 -21t-65.5 -26q-75 -26 -284 -67q-158 -27 -158 -56 q0 -25 18.5 -47t42.5 -22q56 0 381 98q-74 -74 -188 -158q-74 -53 -150 -108q-254 -72 -272 -78q-248 -76 -248 -166z" />
<glyph unicode="M" horiz-adv-x="2570" d="M6 188q0 -72 27 -127q34 -69 96 -69q68 0 184 43q158 57 322 174q306 245 516 432q224 186 528 444q256 203 324 203q29 0 29 -61q0 -130 -232 -389q-64 -71 -186 -160q-111 -82 -219 -162q-76 -60 -164 -158q-105 -117 -105 -153q0 -20 21 -34.5t45 -14.5q35 0 129 88 q125 115 156 145q39 35 202 186q117 105 232 177q110 69 274 141q158 70 185 70q28 0 28 -29q0 -28 -80 -137q-108 -141 -120 -162q-120 -195 -138 -229q-57 -108 -57 -181q0 -25 27 -54.5t53 -29.5q75 0 334 131q38 17 104.5 50t93.5 45q101 46 101 92q0 33 -43 33 q-19 0 -84 -35q-157 -77 -172 -86q-203 -99 -260 -99q-33 0 -33 23q0 26 184 307q138 208 146 221q71 112 71 154q0 27 -25.5 53.5t-58.5 26.5q-115 0 -434 -144q0 1 86 181q64 131 64 219q0 44 -30 74t-73 30q-94 0 -309 -170q-419 -329 -621 -504q-398 -340 -485 -409 q-130 -97 -246 -154q-110 -55 -160 -55l1 9q2 8 4 20.5t2 23.5q-3 28 -9 62q-9 47 -22 57q-20 20 -80 20q-123 0 -123 -129z" />
<glyph unicode="N" horiz-adv-x="2172" d="M-10 117q0 -64 53 -99q37 -24 78 -24q83 0 330 137q262 145 458 299q73 59 308 252q208 173 286 225q-13 -74 -30 -235q-17 -185 -17 -215q-15 -18 -219 -228q-117 -120 -117 -149q0 -21 15.5 -42.5t33.5 -21.5q27 0 91 76q29 33 57 64t39.5 44t13.5 15 q69 67 175.5 171.5t140.5 137.5q304 265 491 424q219 186 219 217q0 47 -35 47q-42 0 -274 -200q-291 -254 -520 -459q0 213 57 444q5 8 72 56q47 35 47 69q0 13 -2 19q-6 21 -21 24h-34q-37 0 -254 -184q-351 -297 -451 -377q-199 -158 -502 -340q-274 -164 -338 -164 q-14 0 -31.5 18t-13.5 34q3 18 45 92q35 60 35 88q0 43 -35 43q-56 0 -106 -96q-45 -86 -45 -162z" />
<glyph unicode="O" horiz-adv-x="1415" d="M-250 463q15 -37 27 -37q28 3 119 63q121 84 151 99q193 105 260 147q-97 -112 -188 -266q-92 -158 -92 -230v-8q19 -229 243 -229q21 0 45 2q325 27 678 242q307 186 516 438q201 238 201 394q0 188 -266 188q-43 0 -68 -2q-246 -60 -360 -97q11 15 59 60q30 26 27 39 q-1 18 -10 27q-7 7 -18 7h-5q-39 -3 -227 -137q-158 -111 -260 -200q-286 -138 -543 -279q-289 -159 -289 -221zM150 182q-1 10 0 19q0 139 157 325q62 73 316 318l368 209q205 106 393 121q25 2 48 2q175 0 186 -123v-10q0 -116 -201 -326q-207 -219 -487 -395 q-312 -197 -541 -224q-50 -4 -70 -4q-160 0 -169 88z" />
<glyph unicode="P" horiz-adv-x="1138" d="M2 35q0 -58 53 -58q18 0 168 144q170 162 266 239q160 128 512 416q265 215 265 277q0 63 -47 63q-20 0 -129 -92q-132 -114 -199 -156q-21 -14 -64 -41t-65 -41q-71 -41 -109 -41q-33 0 -73 19q-38 18 -38 48q0 4 1 9q12 82 149 213q127 121 287 215q254 148 436 148 q17 0 49 -4q138 -18 138 -95q0 -167 -216 -383q-49 -49 -241 -188q-166 -120 -166 -131q0 -35 22 -35q32 0 181 94q159 102 248 185q296 277 296 473q0 86 -124 141q-85 39 -138 39q-208 0 -510 -158q-200 -105 -362 -260q-170 -164 -170 -254q0 -176 254 -176 q-62 -55 -283 -248q-42 -36 -127 -108.5t-127 -108.5q-137 -119 -137 -145z" />
<glyph unicode="Q" horiz-adv-x="1415" d="M0 178q33 -190 331 -190h19q137 3 309 94q23 -23 43 -47q50 -47 144 -90q51 -20 115 -43q20 -4 28 -4q40 0 51 32q3 7 -16 20t-61 34q-103 44 -144 82q-44 41 -69 77q145 87 200 136q255 214 418 464q161 245 161 414q0 15 -1 29q-15 160 -244 160q-53 0 -129 -13 q-218 -72 -344 -125q11 18 49 62q22 28 19 41q-9 36 -39 30q-50 -10 -189 -131q-141 -123 -252 -252q-164 -193 -290 -436q-111 -214 -111 -317q0 -15 2 -27zM119 238q0 128 127 317q18 30 233 301q177 157 309 238q185 113 392 151q41 8 84 8q180 0 180 -139 q0 -133 -178 -369q-177 -234 -418 -417q-92 -74 -139 -115q-34 54 -76 96q-112 86 -172 86q-18 0 -35 -10q-56 -41 -80 -109q-6 -21 2.5 -41t26.5 -26q1 -1 3 -1q15 0 62 64q10 13 29 13q36 0 88 -43q19 -9 45 -78q-132 -43 -217 -60q-59 -12 -109 -12q-126 0 -147 74 q-10 38 -10 72z" />
<glyph unicode="R" horiz-adv-x="1202" d="M-600 586q0 -33 31 -33q73 0 430 235q182 129 338 248q12 -72 77 -137q56 -56 107 -68q27 -8 66 -8t200 29q-37 -54 -86.5 -128t-62.5 -93q-328 -436 -328 -500q0 -62 78 -106q68 -39 149 -39q302 0 559 65q149 40 275 84q147 53 147 74q0 43 -39 43q-6 0 -149 -51 q-160 -53 -262 -76q-251 -53 -531 -53q-45 0 -73.5 24t-28.5 56q0 33 104 190q96 152 170 248q169 217 277 319q43 34 141 92q85 51 137 97q9 8 57.5 48.5t73.5 63.5q68 59 68 97q0 36 -68 36q-24 0 -98 -65q-19 -18 -59 -53.5t-60 -53.5q-123 -103 -278 -174 q-150 -69 -266 -69q-74 0 -111 49q-20 28 -39 92q97 64 154 121q69 69 69 117q0 73 -73 73q-99 0 -279 -180q-209 -209 -369 -332q-83 -64 -284 -180q-164 -95 -164 -102z" />
<glyph unicode="S" horiz-adv-x="1425" d="M8 221q0 -101 51 -164q55 -73 154 -73q117 0 379 268q159 171 461 493q55 57 340 347q197 182 323 182q203 0 316 -125q8 -11 49 -88q26 -57 57 -57q29 0 29 48q0 18 -4 42q-17 117 -160 200q-133 74 -287 74q-226 0 -753 -567q-360 -389 -418 -447q-245 -245 -332 -245 q-36 0 -59 51q-19 43 -19 82q0 16 16.5 66t16.5 67q0 59 -55 59q-38 0 -72 -69q-33 -67 -33 -144z" />
<glyph unicode="T" horiz-adv-x="1171" d="M-10 53q0 -27 30 -61q30 -35 48 -35q114 0 276 119q96 71 291 254q573 536 573 592q0 18 -34 18t-306 -260q-176 -165 -295 -272q-147 -147 -237 -220q-137 -110 -217 -110q-29 0 -29 28q0 18 35 68t35 59q0 29 -41 29q-43 0 -90 -92q-39 -74 -39 -117zM344 772 q0 -65 47 -65q24 0 45 84q5 22 15.5 66t15.5 65q43 113 244 196q204 86 417 86q46 0 193 -16q156 -17 227 -17q225 3 318 7q164 12 256 63q69 37 139 113q66 75 66 112q0 10 -27.5 21.5t-52.5 11.5q-11 0 -125 -102q-110 -99 -144 -119q-78 -21 -344 -21h-69q-107 3 -250 23 q-164 23 -242 23q-293 0 -495 -129q-234 -147 -234 -402z" />
<glyph unicode="U" horiz-adv-x="1738" d="M-190 414q0 -14 13.5 -31.5t26.5 -17.5q38 0 130 47q45 22 87 42.5t63 31t26 12.5q226 109 309 153l-301 -338q-150 -169 -150 -225q0 -64 52 -98q40 -27 90 -27q102 0 299 98q169 84 315 195q-43 -63 -86 -174q-37 -93 -37 -119q0 -35 41 -76q43 -43 82 -43 q170 0 383 88q69 31 205 95.5t205 95.5q184 82 276 125q152 71 152 90q0 27 -45 27q-26 0 -172 -70q-212 -100 -271 -123q-63 -25 -190 -77.5t-191 -78.5q-199 -75 -307 -75q-45 0 -45 51q0 130 500 639l344 352q4 4 160 145q88 79 88 113q0 19 -13 34t-30 15 q-20 0 -111 -76q-100 -86 -160 -149q-220 -237 -377 -381q-271 -253 -546 -430q-287 -186 -428 -186h-19q-33 0 -39 2.5t-6 17.5q0 56 209 274q63 64 189.5 191.5t189.5 191.5q196 190 336 320q38 34 112.5 102.5t112.5 102.5q92 89 92 131q0 37 -39 37t-340 -287 q-195 -186 -393 -328q-213 -103 -446 -225q-37 -17 -111 -53t-111 -53q-124 -61 -124 -78z" />
<glyph unicode="V" horiz-adv-x="1083" d="M4 113v-5q0 -108 117 -120h5q72 0 376 235q316 245 557 492q117 120 270 293q215 250 215 309q0 43 -43 43q-8 0 -55 -53q-44 -54 -131 -162t-131 -162q-139 -167 -285 -307q-144 -138 -397 -328q-46 -33 -137.5 -98t-137.5 -98q-50 -36 -71 -39q-13 -2 -20.5 4.5 t-6.5 19.5q3 31 51 117q129 226 352 512l277 344q145 189 154 262q1 10 1 19q0 68 -61 71h-3q-47 0 -195 -78q-311 -166 -504 -356q-116 -113 -119 -164q0 -27 31 -30h1q23 0 136 116q138 144 209 191q83 57 209 129q123 69 145 69q33 0 21 -26q-8 -24 -166 -223 q-202 -251 -242 -306q-234 -321 -295 -417q-124 -184 -127 -254z" />
<glyph unicode="W" horiz-adv-x="1376" d="M-2 113v-9q0 -44 27 -79q23 -29 57 -29q57 0 170 82q15 11 188 151q238 197 318 271q-193 -266 -193 -369q0 -50 35 -94q41 -50 111 -53h4q144 0 655 460q115 102 291 297q290 324 299 365q1 3 1 7q0 14 -13 28q-16 18 -35 20q-8 0 -115 -125q-139 -164 -201 -229 q-214 -230 -266 -277q-490 -443 -624 -446q-6 0 -23 22t-16 29q3 76 151 295q109 162 223 295l7 7q7 6 19.5 18.5t29.5 29t42 41t52 51.5q91 88 127 168q2 2 2 13q0 49 -43 49q-45 0 -195 -164l-221 -240q-202 -153 -366 -288q-85 -70 -271 -224q-6 -5 -22.5 -19.5 t-25.5 -21.5t-23.5 -14t-26.5 -8q-7 0 -11.5 12t-2.5 25q7 29 51 104l332 469q38 53 278 375q122 170 133 211q4 20 4 35q0 76 -73 76q-76 0 -205 -60t-240 -143q-100 -73 -196 -180q-94 -105 -97 -150q-3 -47 21 -47q10 0 117 115q126 138 206 194q248 172 325 172h7 q20 -3 17 -31t-146 -206q-207 -256 -225 -283q-421 -574 -424 -698z" />
<glyph unicode="X" horiz-adv-x="1656" d="M-18 223q3 -109 43 -176q53 -84 147 -84q229 0 762 451q61 -119 149 -240q126 -172 191 -172q42 0 149 43q33 16 97 44.5t71 31.5q234 101 250 162q9 34 -29 34q-26 0 -223 -98q-213 -106 -297 -106q-56 0 -159 151q-15 25 -62.5 101.5t-71.5 117.5q217 214 443 457 q220 235 264 281q144 153 147 178q2 7 2 13q0 26 -34 26q-32 0 -174 -160q-239 -270 -258 -289q-291 -298 -431 -426q-41 49 -124 279q-24 76 -52 186q-24 100 -37 100q-40 0 -55 -73q-1 -4 -1 -10q0 -49 59 -244q16 -56 71 -170q55 -107 64 -131q-270 -236 -330 -277 q-226 -151 -338 -151q-70 0 -111 53q-38 47 -41 106q-1 6 0 14q0 28 7 81q10 72 10 77q0 25 -12 25q-56 0 -74 -80q-12 -53 -12 -105v-20z" />
<glyph unicode="Y" horiz-adv-x="782" d="M-1196 -1434q0 -39 30.5 -68.5t71.5 -29.5q80 0 285 184q63 59 367 357q207 204 440 516q52 70 155.5 212.5t155.5 213.5q152 103 197 129q2 1 15.5 7.5t37 17.5t49.5 24q187 86 361 156q63 26 63 53q0 33 -61 33q-33 0 -103 -33q-24 -12 -71 -33.5t-70 -32.5 q-177 -82 -219 -104q9 17 50.5 97t64.5 122q108 185 278 383q46 55 281 293q176 179 176 209q0 59 -45 59q-13 0 -381 -348q-151 -143 -334 -291q-183 -139 -233 -139q-41 0 -41 37q0 12 67 106q86 125 146 195q190 230 190 348q0 109 -119 109q-84 0 -276 -88 q-210 -94 -357 -211q-148 -113 -358 -314q-195 -189 -195 -207q0 -53 37 -53q9 0 203 191q221 214 365 317q173 122 348 207q165 82 219 82q24 0 27 -19q-2 5 -2 -4q-1 -8 -1 -30q0 -72 -178 -314q-76 -102 -153 -207q-68 -100 -68 -145q0 -26 30.5 -52t59.5 -26 q130 0 344 152q-138 -308 -313 -535q-231 -199 -313 -264q-67 -56 -200 -167.5t-200 -168.5q-210 -182 -366 -338q-175 -175 -305 -336q-152 -190 -152 -252zM-1116 -1434q-2 5 -2 12q0 91 446 535q161 161 400 369q220 192 346 285q-282 -435 -596 -740 q-111 -109 -342 -332q-156 -147 -209 -147q-34 0 -43 18z" />
<glyph unicode="Z" horiz-adv-x="1171" d="M4 190q0 -61 66 -127q79 -79 200 -79q198 0 408 116q168 91 307 242q121 133 121 211q0 77 -53 160q538 403 538 604q0 79 -73 125q-65 41 -172 41q-157 0 -553 -273q-157 -108 -310 -254q-155 -149 -155 -178q0 -26 28 -26q27 0 176 143q191 182 297 250 q384 252 500 252q45 0 94 -17q60 -22 60 -63q0 -76 -111 -193q-90 -81 -176 -161q-100 -97 -199 -152q-12 -7 -135 -70q-51 -23 -51 -47q0 -30 41 -39q50 -13 76 -22q41 -21 41 -80q0 -143 -242 -315q-239 -172 -438 -172q-81 0 -127 43q-32 29 -53 81q-18 43 -27 43 q-41 0 -57 -4q-21 -9 -21 -39z" />
<glyph unicode="\" horiz-adv-x="878" d="M4 1313q-6 -23 178 -357q41 -73 123 -219.5t123 -218.5q30 -53 195 -375q106 -207 118 -209q75 -18 84 25q9 32 -92 221q-82 160 -201 348q-21 35 -262 459q-196 345 -219 352q-39 9 -47 -26z" />
<glyph unicode="_" horiz-adv-x="1179" d="M27 -182q0 -15 3 -21t25 -12t68 -6q36 0 156 6q160 4 178 4q143 -4 329 -14q258 -11 271 -11q54 0 61 7q31 36 31 59q0 15 -10 25q-21 21 -238 30q-193 6 -399 0q-439 -15 -465 -41q-10 -10 -10 -26z" />
<glyph unicode="`" horiz-adv-x="878" d="M279 1227q0 -24 106 -195q5 -10 19.5 -36t22 -39.5t19 -31t20 -25t15.5 -7.5q20 0 38 19t18 42q0 10 -60 107q-38 66 -71 127q-40 67 -74 76q-18 5 -35.5 -7t-17.5 -30z" />
<glyph unicode="a" horiz-adv-x="1060" d="M2 102q0 -52 39.5 -86t105.5 -34q189 0 402 149q6 -12 18.5 -35.5t18.5 -34.5q25 -38 80 -38q168 0 348 79q252 111 252 144q0 22 -31 22q-33 0 -248 -104q-130 -62 -268 -62q-33 0 -33 54q0 34 74 90q74 59 74 71q0 60 -33 60q-43 0 -82 -25q-51 66 -146 66 q-250 0 -419 -105q-152 -96 -152 -211zM119 102q0 79 166 152q141 63 243 63q25 0 35.5 -5t9.5 -15q-22 -97 -194 -172q-130 -59 -206 -59q-14 0 -26 2q-28 3 -28 34z" />
<glyph unicode="b" horiz-adv-x="1015" d="M-16 39q0 -23 28 -51q37 -37 84 -37q90 0 211 59l203 111q129 -72 203 -72q82 0 254 41q163 40 163 55q0 43 -24 43q-19 0 -137 -28q-122 -29 -211 -29q-78 0 -117 33q158 109 158 188q0 43 -41 43q-51 0 -170 -96q-78 -62 -103 -94q-39 -23 -194 -119q-108 -63 -162 -63 q-29 0 -29 30q0 47 181 240q65 69 147 133q26 18 59.5 42.5t42.5 31.5q33 23 424 196q272 121 412 213q203 134 363 285q135 129 135 170q0 39 -27.5 70.5t-62.5 31.5q-70 0 -261 -114q-8 -5 -56.5 -37t-125.5 -83t-164 -108q-168 -110 -389 -295l-270 -227q-2 -2 -18 -14 t-58.5 -43.5t-83.5 -61.5q-82 -61 -147 -129q-121 -132 -148 -159q-69 -87 -69 -156zM817 729q324 274 397 324q455 327 543 327q12 0 12 -16q0 -35 -151 -168q-155 -137 -299 -229q-130 -83 -262 -142q-89 -39 -240 -96z" />
<glyph unicode="c" horiz-adv-x="798" d="M-6 100q0 -118 135 -118q118 0 449 110q385 126 385 160q0 31 -56 31q-1 0 -348 -111q-328 -106 -416 -106q-14 0 -29.5 11t-15.5 23q0 56 178 191q94 58 146 82q40 -59 64 -59q3 0 6 1q26 10 55 52q24 38 24 49q0 32 -24.5 54t-59.5 22q-67 0 -233 -111 q-260 -172 -260 -281z" />
<glyph unicode="d" horiz-adv-x="610" d="M-6 121q0 -49 29 -85t75 -36q180 0 371 147q170 133 289 336q116 198 116 361q0 270 -176 514q-90 122 -123 155q-74 68 -155 68q-80 0 -144 -113q-53 -92 -53 -135q0 -41 51 -41q15 0 56 92q41 95 90 95q67 0 115 -54q1 -1 10 -15t32 -47.5t48 -70.5q76 -111 114 -219 q35 -110 35 -266q0 -199 -219 -453q-218 -250 -385 -250q-51 0 -51 31q0 64 133 144q10 7 125 34q80 18 80 66q0 39 -41 39q-80 0 -193 -64q-96 -55 -157 -116q-72 -72 -72 -117z" />
<glyph unicode="e" horiz-adv-x="591" d="M-6 115q0 -52 62.5 -88.5t160.5 -36.5q124 0 307 73q168 64 168 93q0 32 -37 32q-10 0 -170 -63q-158 -64 -249 -64q-132 0 -132 54q0 31 60 73q93 47 225 142q178 126 178 202q0 54 -65 54q-22 0 -131 -68q-120 -77 -207 -153q-170 -147 -170 -250z" />
<glyph unicode="f" horiz-adv-x="860" d="M-473 -680q0 -41 45 -41q62 0 195 133l239 252q122 125 254 289q104 128 162 203q69 39 88 45q74 31 162 45q90 16 135 22q26 5 80 16.5t80 16.5q92 21 92 49q0 33 -80 33q-66 0 -438 -74q188 159 329 312q3 3 19 17.5t49 44t68 62.5q75 66 75 103q0 47 -47 47 q-29 0 -213 -158q-228 -196 -332 -264q-151 -98 -235 -139q-72 -35 -205 -78q-90 -31 -90 -39q0 -61 47 -61q79 0 416 153q-101 -119 -168 -190q-49 -44 -203 -170q-137 -114 -211 -199q-313 -346 -313 -430z" />
<glyph unicode="g" horiz-adv-x="671" d="M-1034 -975q0 -55 108 -55q115 0 336 106q229 112 385 244q182 150 443 467q142 77 172 129q6 9 6 18q0 26 -39 52q115 142 151 184q174 198 174 256q0 66 -77 66q-71 0 -160 -29q-464 -164 -464 -280q0 -7 1 -13q15 -72 104 -113q65 -32 181 -32q-109 -159 -203 -220 q-169 -81 -436 -229q-256 -143 -451 -291q-231 -175 -231 -260zM-866 -897q0 21 198 164q196 142 297 201q267 165 387 200q-208 -226 -362 -334q-143 -100 -289 -176q-152 -82 -207 -82q-24 0 -24 27zM123 170q0 34 188 129q148 74 217 74q21 0 21 -17q0 -51 -209 -233 q-38 -15 -81 -15t-91 15q-45 15 -45 47z" />
<glyph unicode="h" horiz-adv-x="1036" d="M-72 -10q0 -21 27 -21q56 0 149 84q63 63 195 189q40 24 180 112q112 56 162 56q17 0 34 -13t17 -26q0 -16 -90 -123q-88 -101 -88 -152q0 -106 199 -106q113 0 278 71q150 57 150 72q0 41 -41 41q-2 0 -51 -24q-59 -29 -84 -37q-165 -52 -230 -52q-106 0 -106 52 q0 19 100 131q100 115 100 153q0 36 -29.5 67.5t-64.5 31.5q-82 0 -225 -52q39 45 188 150q14 9 89.5 59.5t142.5 94.5q407 266 407 354q0 19 -26.5 35t-57.5 16q-122 0 -446 -260q-214 -171 -369 -322q-201 -205 -268 -276q-134 -138 -162 -170q-80 -89 -80 -135z" />
<glyph unicode="i" horiz-adv-x="569" d="M-29 102q0 -50 39 -85t94 -35q156 0 357 65q184 58 184 88q0 37 -57 37q-3 0 -168 -53t-256 -53q-76 0 -76 36q0 34 145 158q146 128 146 143q0 23 -6.5 32.5t-20.5 6.5q-59 -12 -217 -149q-164 -144 -164 -191zM535 684q0 -63 63 -63q66 0 66 61q0 26 -20 46t-46 20 q-63 0 -63 -64z" />
<glyph unicode="j" horiz-adv-x="903" d="M-618 -559v-8q0 -31 22 -51q28 -31 82 -31q79 0 242 63q158 62 286 142q139 90 277 208l227 203q211 83 330 156q13 9 125 57q65 30 65 58q0 38 -18 38q-65 0 -213 -83q-113 -67 -221 -103q101 116 168 189q120 144 120 186q0 41 -38 41q-30 0 -177 -84l-270 -160 q-30 -15 -82.5 -42.5t-96 -49.5t-81.5 -41q-141 -73 -141 -113q0 -20 26 -20q54 0 297 135q68 37 147.5 80.5t130.5 71t81 43.5l6 -7q-118 -145 -195 -231q-399 -204 -651 -319q-226 -116 -279 -148q-160 -97 -169 -180zM-498 -530q0 36 359 217q124 62 290.5 146.5 t213.5 107.5q-70 -70 -207 -174q-142 -108 -213 -154q-61 -39 -213 -102q-154 -67 -195 -70h-6q-29 0 -29 29zM989 786q0 -28 21 -50q20 -20 44 -20q5 0 9 1q28 1 45 30q13 20 13 39q0 9 -3 17q-15 55 -63 55q-26 0 -45 -20q-21 -22 -21 -52z" />
<glyph unicode="k" horiz-adv-x="1046" d="M-41 63q0 -61 27 -61q49 0 114 33q21 13 59.5 34.5t53.5 30.5q111 60 170 90q0 -93 33 -155q43 -82 127 -82q143 0 391 94q256 99 256 115q0 28 -35 28q1 0 -22 -7.5t-87 -29t-131 -44.5q-256 -86 -348 -86q-30 0 -58 37.5t-28 80.5q0 17 8.5 49.5t8.5 47.5 q141 110 376 262q1 1 199 118q109 62 109 82q0 25 -35 25q-31 0 -123 -53q-31 -20 -90.5 -55.5t-79.5 -47.5q-270 -162 -428 -266q-86 -30 -141 -51q213 198 213 235q0 14 -13.5 28.5t-29.5 14.5q-25 0 -346 -315q-17 -16 -49.5 -45t-47.5 -43q-53 -50 -53 -64z" />
<glyph unicode="l" horiz-adv-x="727" d="M0 109q0 -49 32 -82t79 -33q61 0 200 29q158 35 273 88q26 11 77.5 33t77.5 34q82 40 82 74q0 24 -20 24q-26 0 -105 -36q-114 -51 -145 -62q-278 -94 -352 -94q-52 0 -52 45q0 78 220 246q145 87 262 139q92 41 235 111q119 58 119 129q0 37 -43 37q-146 0 -467 -224 q-99 -70 -264 -219q-209 -188 -209 -239z" />
<glyph unicode="m" horiz-adv-x="1654" d="M-72 39q0 -49 39 -49q31 0 146 59q186 95 192 98q138 63 295 117q137 49 168 49q18 0 18 -22q0 -30 -92 -113q-90 -84 -90 -88q0 -51 35 -51q24 0 305 133q183 86 316 107q-35 -39 -105 -113q-61 -70 -61 -92q0 -42 34 -68t84 -26q139 0 390 83q75 25 141 64q69 40 69 55 q0 19 -26 19q-5 0 -86 -35q-88 -39 -144 -55q-204 -64 -296 -64q-62 0 -62 27q0 9 4.5 19t15 22t18.5 20.5t24.5 24t23.5 22.5q32 32 123 94q74 53 74 72q0 47 -43 47q-70 0 -262 -63q-209 -81 -275 -113q23 37 31 94q1 7 1 13q-1 34 -27 58q-32 28 -85 28q-33 0 -149 -43 q-190 -73 -209 -78q-174 -58 -176 -58q27 34 121 105q86 68 86 82q0 26 -31 26q-61 0 -299 -182q-236 -181 -236 -225z" />
<glyph unicode="n" horiz-adv-x="1105" d="M-2 90q0 -51 47 -51q24 0 305 133q183 86 316 107q-35 -39 -105 -113q-61 -70 -61 -92q0 -42 34 -68t84 -26q139 0 390 83q75 25 141 64q70 40 70 55q0 19 -27 19q-5 0 -86 -35q-90 -40 -143 -55q-204 -64 -297 -64q-62 0 -62 27q0 23 98 127q26 29 117 86q68 44 68 61 q0 47 -43 47q-111 0 -303 -63q-189 -70 -275 -109q30 48 35 86q2 11 2 22q-1 29 -13 51q-16 32 -46 32q-24 0 -40 -6.5t-24 -14t-11.5 -27.5t-4 -32t-0.5 -43q0 -23 -84 -98q-82 -73 -82 -103z" />
<glyph unicode="o" horiz-adv-x="770" d="M2 74q0 -30 27 -60q30 -37 69 -37q118 0 240 93q56 41 209 194q76 -31 145 -31q99 0 207 23q100 24 100 57q0 17 -34 17q-13 0 -105 -15q-92 -12 -147 -12q-79 17 -101 29q52 101 52 145q0 40 -32 72.5t-61 32.5q-46 0 -139 -37q-117 -45 -201 -117 q-102 -87 -165.5 -186.5t-63.5 -167.5zM102 94q0 70 146 219q64 64 160 105q23 -17 32 -64q4 -20 4 -37t-4 -30q-218 -226 -315 -226q-23 0 -23 33z" />
<glyph unicode="p" horiz-adv-x="1290" d="M-1124 -999q0 -48 55 -48q29 0 287 246q401 382 471 443q49 43 338 309q180 168 239 209q56 -33 80 -33q25 0 92 33q134 61 203 61q14 0 14 -37q0 -34 -98 -110q-16 -13 -53 -21q-26 -10 -23 -26q3 -47 56 -47q46 0 196 63q213 38 461 117q91 21 158 39q86 21 86 45 q0 26 -31 26q-21 0 -250 -49q-292 -70 -389 -94q82 76 82 117q0 28 -25 48.5t-57 20.5q-56 0 -152 -22q-49 -14 -111 -30t-67 -17q-11 -2 -28 8q-6 6 -15 12q46 52 201 189q135 120 315 262q79 60 234 164q92 62 92 75q0 37 -27 37q-30 0 -151 -71q-113 -67 -209 -146 q-451 -366 -690 -575q-280 -243 -555 -494q-729 -675 -729 -704z" />
<glyph unicode="q" horiz-adv-x="663" d="M-457 -727q0 -55 109 -55q69 79 229 250q22 22 148 141q78 72 159 166q340 187 340 211q0 39 -63 39q-2 0 -43 -23q-38 -21 -45 -16q115 142 151 184q174 198 174 256q0 66 -77 66q-71 0 -160 -29q-464 -164 -464 -280q0 -7 1 -13q15 -72 104 -113q65 -32 181 -32 q-109 -159 -203 -220q-172 -172 -266 -258l-178 -165q-97 -94 -97 -109zM123 170q0 34 188 129q148 74 217 74q21 0 21 -17q0 -51 -209 -233q-38 -15 -81 -15t-91 15q-45 15 -45 47z" />
<glyph unicode="r" horiz-adv-x="792" d="M10 231q0 -67 58 -67q9 0 75 72q69 72 78 75h3q16 0 73 -30q-2 -7 -94 -105q-80 -89 -80 -121q0 -47 61 -84q54 -28 84 -28q111 0 187 20q48 11 168 55q90 33 190 82q98 46 98 64q0 25 -5.5 31t-28.5 6q-22 0 -101 -39q-107 -49 -153 -62q-232 -73 -326 -73q-47 0 -47 28 q0 111 186 193q58 25 162 63q72 35 72 68q0 74 -72 74q-43 0 -111 -47q-67 -46 -102 -46q-10 0 -17.5 3.5t-12.5 11t-8 14.5t-4 19.5t-1.5 20t-1 23t-0.5 21.5q-12 39 -72 39q-43 0 -151 -129q-107 -125 -107 -152z" />
<glyph unicode="s" horiz-adv-x="870" d="M-8 152q0 -46 26 -46q18 0 82 31l111 56q37 16 84 37.5t76.5 35t48.5 21.5q-21 -76 -25 -80q-24 -40 -78 -88q-19 -17 -104 -92q-51 -42 -51 -50q0 -53 51 -53q31 0 117 47q89 47 155 101q173 69 217 82q180 72 328 131q0 53 -41 53q-4 0 -258 -72q-56 -19 -132 -44 t-97 -32q33 69 39 113q15 11 40.5 29t46 32.5t38.5 28.5q77 59 77 80q0 57 -38 57q-34 0 -138 -55q-56 -28 -227 -121q-348 -179 -348 -202z" />
<glyph unicode="t" horiz-adv-x="796" d="M-59 -29q0 -55 43 -55q12 0 303 268q193 177 227 211h299q111 3 113 4q53 9 53 43q0 29 -113 29h-22q-8 -1 -19 -1q-34 0 -100 7q-84 8 -137 8q198 207 221 230q170 191 170 203q0 47 -41 47q-35 0 -221 -222q-145 -153 -250 -247h-240q-127 0 -143 -2q-76 -9 -76 -52 q0 -34 72 -34q28 0 63 2q41 3 62 0q16 -2 182 -2q-181 -167 -209 -195q-51 -47 -153 -145q-84 -78 -84 -97z" />
<glyph unicode="u" horiz-adv-x="1083" d="M0 123q0 -51 39.5 -86t93.5 -35q156 0 248 25q57 15 186 79q47 -45 72 -57q54 -31 143 -31q80 0 242 58q201 71 201 108q0 21 -27 21q-10 0 -86 -29q-104 -41 -121 -45q-145 -45 -194 -45q-97 0 -97 57q0 23 56 58q85 56 100 69q55 49 55 111q0 43 -30 43q-23 0 -111 -70 q-119 -96 -168 -129q-207 -139 -409 -139q-76 0 -76 37q0 34 145 158q146 128 146 143q0 22 -6 32q-5 7 -15 8q-3 0 -6 -1q-58 -12 -217 -150q-164 -144 -164 -190z" />
<glyph unicode="v" horiz-adv-x="589" d="M4 70q-2 -15 -2 -28q0 -62 37 -62q42 0 293 139q101 58 237 160q146 109 146 127q0 11 -18.5 31t-26.5 20q-14 0 -142 -84q-169 -116 -196 -131q-120 -74 -209 -123q0 49 45 188l55 166q4 15 4 25q0 28 -28 28q-48 0 -121 -172q-20 -48 -45 -143q-27 -111 -29 -141z" />
<glyph unicode="w" horiz-adv-x="1216" d="M8 80q0 -92 90 -92q37 0 254 41q133 25 334 112q-22 -77 -22 -106v-6q2 -14 19.5 -27.5t37.5 -13.5q41 0 147 71q198 136 201 138q65 37 172 92q57 29 57 49q0 43 -41 43q-49 0 -188 -74q-146 -83 -190 -110q-74 65 -113 65q-24 0 -125 -37q-123 -45 -158 -53 q-298 -74 -315 -74q-39 0 -39 27q0 21 96 137q25 31 99 90q59 50 59 62q0 43 -59 43q-35 0 -111 -76q-19 -19 -57 -59t-58 -60q-40 -43 -65 -106q-25 -58 -25 -76z" />
<glyph unicode="x" horiz-adv-x="1056" d="M-39 57q0 -47 36.5 -76.5t92.5 -29.5q68 0 240 41q140 34 233 76q12 -30 59.5 -53t98.5 -23q97 0 297 102q192 98 192 129q0 23 -28 23q-9 0 -76 -37q-94 -51 -119 -62q-203 -90 -237 -90q-40 0 -54 17q-8 8 -8 45q0 29 105 137q59 62 139 113q5 2 15.5 7.5t17 9t16 8.5 t15 10t11.5 10.5t8.5 12t2.5 13.5q0 27 -64 27q-35 0 -125 -41v27q2 16 2 36q0 119 -143 119q-82 0 -130 -16t-48 -43q0 -35 31 -35q8 0 47.5 17.5t52.5 17.5q11 1 21 1q36 0 55 -9q33 -14 33 -74q0 -93 -109 -211q-90 -98 -242 -166q-137 -61 -237 -61q-94 0 -94 39 q0 52 114 137q142 97 148 114q4 12 -15.5 21.5t-31.5 3.5q-71 -35 -181 -115q-141 -108 -141 -172z" />
<glyph unicode="y" horiz-adv-x="841" d="M-1206 -1219q5 -24 22 -44.5t35 -20.5q107 0 293 162q50 47 151.5 141t151.5 141q368 338 434 404q171 164 328 321q185 97 332 162q51 23 147.5 65.5t112.5 49.5q7 4 151 57q84 31 84 45q0 29 -35 29q-12 0 -37 -7t-46 -14.5t-60 -22t-57 -20.5q-73 -26 -189 -66 t-155 -54q28 36 161 157q119 107 119 125q0 43 -20 43q-28 0 -127 -57q-25 -15 -78 -44.5t-78 -45.5q-148 -80 -244 -80q-55 0 -55 35q0 15 39 71q42 61 80 93q13 11 96 67q51 34 51 47q0 21 -28 21q-45 0 -127 -49q-80 -48 -140 -117q-77 -89 -77 -158q0 -43 47 -67 q38 -21 84 -21q66 0 221 47q-104 -93 -158 -147q-56 -54 -128.5 -123t-82.5 -78q-27 -18 -288 -168q-167 -98 -293 -192q-224 -168 -328 -267q-310 -290 -310 -409q0 -6 1 -11zM-1133 -1192q0 21 95 133q97 111 211 219q103 100 274 222q230 164 340 210q-18 -32 -145 -153 q-66 -66 -252 -238q-27 -26 -137 -128t-168 -158q-152 -134 -203 -134q-15 0 -15 27z" />
<glyph unicode="z" horiz-adv-x="1071" d="M-238 -606q0 -69 54 -117q41 -35 73 -35q106 0 230 80q112 73 198 178q78 94 142 215q37 76 80 174l335 181q324 176 324 186q0 29 -33 29q-23 0 -323 -160q-171 -90 -334 -152q-82 18 -82 56q0 12 74 71q26 19 75.5 59.5t75.5 59.5q191 153 191 221q0 97 -170 97 q-109 0 -314 -97q-164 -80 -268 -176q-102 -94 -102 -147q0 -62 67 -68q28 -2 56 17t28 43q4 8 -3 13t-17.5 9t-12.5 8q0 33 93 105q93 70 207 116q209 84 266 84l64 1q-5 1 -13 1q31 -3 31 -20q0 -13 -160 -152q-16 -15 -203 -163q-72 -60 -72 -82q0 -34 31 -62 q44 -26 62 -39q-144 -91 -342 -211q-127 -83 -213 -172q-95 -95 -95 -151zM-137 -629q0 95 225 248q68 47 318 193q-58 -122 -173 -258q-187 -220 -327 -220q-8 0 -25.5 13.5t-17.5 23.5z" />
<glyph unicode="|" horiz-adv-x="577" d="M281 -68q0 -59 6 -65q36 -31 59 -31q15 0 25 10q21 24 30 240q9 196 0 399q0 166 2 506q3 424 -12 439q-31 28 -55 0q-16 -16 -25 -398q-4 -336 -6 -502q-4 -138 -14 -327q-10 -232 -10 -271z" />
<glyph unicode="&#xad;" d="M215 449q0 -15 3 -21t25 -12t68 -6q11 0 31 0.5t57 1.5t68 2q120 6 178 6q145 -4 330 -14q258 -11 270 -11q56 0 62 6q30 35 30 60q0 14 -10 24q-22 22 -237 31q-194 6 -400 0q-439 -15 -465 -41q-10 -10 -10 -26z" />
<glyph unicode="&#xb4;" horiz-adv-x="878" d="M270 1055q-5 -18 7 -36t30 -18q21 0 82 37q62 42 113 72q12 7 36.5 19.5t39 21t31 19t24.5 19t8 15.5q0 20 -19 38t-42 18q-5 0 -13.5 -3.5t-21 -11t-21.5 -13.5t-26.5 -17.5t-24.5 -16.5q-65 -34 -129 -72q-65 -38 -74 -71z" />
<glyph unicode="&#xb7;" horiz-adv-x="706" d="M279 379q0 -35 25 -56.5t61 -19.5q29 1 49 26.5t20 57.5q0 74 -69 80q-32 1 -59 -27t-27 -61z" />
<glyph unicode="&#x2000;" horiz-adv-x="956" />
<glyph unicode="&#x2001;" horiz-adv-x="1913" />
<glyph unicode="&#x2002;" horiz-adv-x="956" />
<glyph unicode="&#x2003;" horiz-adv-x="1913" />
<glyph unicode="&#x2004;" horiz-adv-x="637" />
<glyph unicode="&#x2005;" horiz-adv-x="478" />
<glyph unicode="&#x2006;" horiz-adv-x="318" />
<glyph unicode="&#x2007;" horiz-adv-x="318" />
<glyph unicode="&#x2008;" horiz-adv-x="239" />
<glyph unicode="&#x2009;" horiz-adv-x="382" />
<glyph unicode="&#x200a;" horiz-adv-x="106" />
<glyph unicode="&#x2010;" d="M215 449q0 -15 3 -21t25 -12t68 -6q11 0 31 0.5t57 1.5t68 2q120 6 178 6q145 -4 330 -14q258 -11 270 -11q56 0 62 6q30 35 30 60q0 14 -10 24q-22 22 -237 31q-194 6 -400 0q-439 -15 -465 -41q-10 -10 -10 -26z" />
<glyph unicode="&#x2011;" d="M215 449q0 -15 3 -21t25 -12t68 -6q11 0 31 0.5t57 1.5t68 2q120 6 178 6q145 -4 330 -14q258 -11 270 -11q56 0 62 6q30 35 30 60q0 14 -10 24q-22 22 -237 31q-194 6 -400 0q-439 -15 -465 -41q-10 -10 -10 -26z" />
<glyph unicode="&#x2012;" d="M215 449q0 -15 3 -21t25 -12t68 -6q11 0 31 0.5t57 1.5t68 2q120 6 178 6q145 -4 330 -14q258 -11 270 -11q56 0 62 6q30 35 30 60q0 14 -10 24q-22 22 -237 31q-194 6 -400 0q-439 -15 -465 -41q-10 -10 -10 -26z" />
<glyph unicode="&#x2013;" d="M190 432q0 -15 3 -21t25.5 -12t68.5 -6q11 0 31 0.5t56.5 1.5t67.5 2q120 6 179 6q143 -4 329 -14q235 -10 271 -10q55 0 61 6q31 36 31 59q0 15 -10 25q-22 22 -238 31q-193 6 -399 0q-439 -15 -465 -41q-11 -11 -11 -27z" />
<glyph unicode="&#x2014;" horiz-adv-x="1794" d="M373 338q0 -43 51 -43q56 0 170 12q177 23 221 25q331 17 551 20q59 0 88 2q33 3 33 33q0 41 -299 41q-125 0 -275 -6q-540 -24 -540 -84z" />
<glyph unicode="&#x2018;" horiz-adv-x="688" d="M92 905q0 -92 72 -92q13 0 22 1.5t21.5 7.5t20.5 21.5t10 39.5q1 17 4 53t4 55q14 85 77.5 192t161.5 195q43 40 43 45q0 7 -2 11q-11 20 -61 2q-39 -14 -117 -88q-68 -68 -117 -136q-139 -201 -139 -307z" />
<glyph unicode="&#x2019;" horiz-adv-x="688" d="M184 846q0 -6 2 -10q12 -20 62 -2q41 14 117 90q65 62 116 133q140 202 140 307q0 92 -72 92q-22 0 -41 -8q-30 -10 -33 -59q-1 -19 -4 -56t-4 -55q-14 -85 -78 -192t-162 -195q-43 -40 -43 -45z" />
<glyph unicode="&#x201a;" horiz-adv-x="559" d="M0 -326q0 -6 2 -10q11 -20 61 -2q41 14 117 90q68 65 117 133q139 201 139 308q0 92 -71 92q-20 0 -41 -9q-8 -3 -14.5 -9.5t-11.5 -18.5t-8.5 -22.5t-6.5 -29.5t-4.5 -30t-4.5 -34t-4 -32q-19 -106 -63 -182q-60 -106 -164 -199q-43 -40 -43 -45z" />
<glyph unicode="&#x201c;" horiz-adv-x="876" d="M72 967q0 -93 71 -93q13 0 22 1.5t21.5 7.5t20.5 21.5t10 39.5q1 17 4 53.5t4 55.5q14 85 78 192t162 195q43 40 43 45q0 6 -2 10q-12 20 -62 2q-38 -13 -116 -88q-70 -71 -117 -135q-139 -201 -139 -307zM342 963q0 -93 72 -93q13 0 22 1.5t21 7.5t20 21.5t10 39.5 q1 17 4.5 53.5t4.5 55.5q14 85 77.5 192t161.5 195q43 40 43 45q0 6 -2 10q-11 20 -61 2q-39 -14 -117 -88q-70 -71 -117 -135q-139 -201 -139 -307z" />
<glyph unicode="&#x201d;" horiz-adv-x="876" d="M139 928q0 -6 2 -10q12 -21 62 -3q38 13 116 91q68 65 117 133q139 201 139 307q0 92 -71 92q-22 0 -41 -8q-30 -10 -33 -60q-1 -19 -4 -55.5t-4 -54.5q-14 -85 -78 -192t-162 -195q-43 -40 -43 -45zM410 924q0 -7 2 -11q11 -20 61 -2q41 14 117 90q66 63 117 134 q139 201 139 307q0 92 -72 92q-22 0 -41 -8q-30 -10 -33 -60q-1 -18 -4 -55t-4 -55q-14 -85 -77.5 -192t-161.5 -195q-43 -40 -43 -45z" />
<glyph unicode="&#x201e;" horiz-adv-x="876" d="M37 -342q0 -6 2 -10q11 -20 61 -2q41 14 117 90q68 65 117 133q139 201 139 307q0 92 -72 92q-22 0 -41 -8q-29 -10 -32 -59q-1 -19 -4.5 -56t-4.5 -55q-14 -85 -77.5 -192t-161.5 -195q-43 -40 -43 -45zM307 -346q0 -6 2 -10q12 -20 62 -2q40 14 116 90q68 65 117 133 q139 201 139 307q0 92 -71 92q-22 0 -41 -8q-8 -3 -14.5 -9.5t-11.5 -18.5t-8 -23t-6 -29t-4.5 -30t-4.5 -33.5t-4 -32.5q-18 -104 -64 -182q-60 -106 -164 -199q-43 -40 -43 -45z" />
<glyph unicode="&#x2022;" horiz-adv-x="706" d="M258 377q0 -22 8 -35q30 -62 101 -59q37 6 61.5 37t24.5 69q0 89 -86 98q-41 4 -75 -31t-34 -79z" />
<glyph unicode="&#x2026;" horiz-adv-x="1253" d="M346 74q0 -35 25 -56.5t61 -19.5q29 1 49.5 27t20.5 57q0 74 -70 80q-32 1 -59 -27t-27 -61zM668 72q0 -17 6 -29q21 -40 76 -37q73 6 73 76q0 72 -69 78q-32 1 -59 -27t-27 -61zM979 78q0 -35 25 -56.5t61 -19.5q29 1 49.5 27t20.5 57q0 74 -70 80q-32 1 -59 -27 t-27 -61z" />
<glyph unicode="&#x202f;" horiz-adv-x="382" />
<glyph unicode="&#x205f;" horiz-adv-x="478" />
<glyph unicode="&#x20ac;" horiz-adv-x="1280" d="M47 508l35 72h106q0 8 -1 30.5t-1 30.5q0 29 4 57h-143l35 72h115q18 127 56 221t105 166t173 109t249 37q270 0 381 -111l15 -162h-43q-17 101 -101.5 150t-214.5 49q-104 0 -180.5 -33t-124 -96.5t-74 -143t-39.5 -186.5h652l-35 -72h-623q0 -8 -1 -29t-1 -30 q0 -45 2 -59h561l-34 -72h-523q20 -220 128.5 -339.5t293.5 -119.5q76 0 139.5 18.5t112.5 66t62 118.5h43l-15 -156q-110 -119 -381 -119q-262 0 -406.5 135.5t-172.5 395.5h-154z" />
<glyph unicode="&#x25fc;" horiz-adv-x="604" d="M0 0v604h604v-604h-604z" />
</font>
</defs>
</svg>
